<?xml version="1.0" encoding="utf-8"?>
<!-- Generator: Adobe Illustrator 21.1.0, SVG Export Plug-In . SVG Version: 6.00 Build 0)  -->
<svg version="1.1" xmlns="http://www.w3.org/2000/svg" xmlns:xlink="http://www.w3.org/1999/xlink" x="0px" y="0px"
	 viewBox="0 0 64 64" style="enable-background:new 0 0 64 64;" xml:space="preserve">
<style type="text/css">
	.st0{fill:#FFFFFF;}
</style>
<g id="Laag_2">
</g>
<g id="Layer_1">
	<g>
		<path class="st0" d="M36.4,46.5l14.5-8.4c0.4-0.2,0.4-0.8,0-1.1l-14.5-8.4c-0.4-0.2-0.9,0.1-0.9,0.5v5.1c0,0.3-0.3,0.6-0.6,0.6
			H14.6c-0.3,0-0.6,0.3-0.6,0.6v4.1c0,0.3,0.3,0.6,0.6,0.6h20.3c0.3,0,0.6,0.3,0.6,0.6v5.1C35.5,46.4,36,46.7,36.4,46.5z"/>
		<path class="st0" d="M61,13H24l-6-6H3c-1.7,0-3,1.3-3,3v9h64v-3C64,14.3,62.7,13,61,13z"/>
		<path class="st0" d="M0,54c0,1.7,1.3,3,3,3h58c1.7,0,3-1.3,3-3V22H0V54z M12,34.9c0-1.1,0.9-2,2-2h19.5v-4.8c0-0.7,0.4-1.4,1-1.7
			c0.3-0.2,0.7-0.3,1-0.3s0.7,0.1,1,0.3l16.3,9.4c0.6,0.4,1,1,1,1.7s-0.4,1.4-1,1.7l-16.3,9.4c-0.3,0.2-0.7,0.3-1,0.3
			s-0.7-0.1-1-0.3c-0.6-0.4-1-1-1-1.7v-4.8H14c-1.1,0-2-0.9-2-2V34.9z"/>
	</g>
</g>
<g id="Laag_3">
</g>
</svg>
