<svg id="Layer_1" data-name="Layer 1" xmlns="http://www.w3.org/2000/svg" viewBox="0 0 64 57"><defs><style>.cls-1{isolation:isolate;}.cls-2{fill:#fff;}</style></defs><title>folder_add</title><g id="FOLDER_OK" data-name="FOLDER / OK" class="cls-1"><g id="FOLDER_OK-2" data-name="FOLDER / OK"><path class="cls-2" d="M60,49H57V46a3,3,0,0,0-6,0v3H48a3,3,0,0,0,0,6h3v3a3,3,0,0,0,6,0V55h3a3,3,0,0,0,0-6ZM0,51a3,3,0,0,0,3,3H42.37A5.94,5.94,0,0,1,48,46a6,6,0,0,1,12,0,6,6,0,0,1,4,1.56V19H0ZM61,10H24L18,4H3A3,3,0,0,0,0,7v9H64V13A3,3,0,0,0,61,10Z" transform="translate(0 -4)"/></g></g></svg>