<?xml version="1.0" encoding="utf-8"?>
<!-- Generator: Adobe Illustrator 21.1.0, SVG Export Plug-In . SVG Version: 6.00 Build 0)  -->
<svg version="1.1" xmlns="http://www.w3.org/2000/svg" xmlns:xlink="http://www.w3.org/1999/xlink" x="0px" y="0px"
	 viewBox="0 0 400 600" style="enable-background:new 0 0 400 600;" xml:space="preserve">
<style type="text/css">
	.st0{fill:#FF0000;}
	.st1{display:none;}
	.st2{display:inline;}
	.st3{fill:none;stroke:#FFFFFF;stroke-width:15;stroke-linecap:round;stroke-linejoin:round;stroke-miterlimit:10;}
	.st4{fill:none;stroke:#FFFFFF;stroke-width:20;stroke-miterlimit:10;}
	.st5{fill:#FFFFFF;stroke:#FFFFFF;stroke-width:20;stroke-miterlimit:10;}
</style>
<g id="Laag_8">
	<path class="st0" d="M356,465H45c-11,0-20-9-20-20V134c0-11,9-20,20-20h311c11,0,20,9,20,20v311C376,456,367,465,356,465z"/>
</g>
<g id="Laag_5">
	<polygon class="st0" points="200,523 265.3,465 134.7,465 	"/>
</g>
<g id="Laag_9">
</g>
<g id="Laag_16">
</g>
<g id="Laag_17">
</g>
<g id="Laag_7">
</g>
<g id="Laag_12">
</g>
<g id="Laag_15" class="st1">
	<g class="st2">
		<path class="st3" d="M61.5,241.5c0,0,25-35,60,0s60,0,60,0"/>
		<path class="st3" d="M61.5,281.5c0,0,25-35,60,0s60,0,60,0"/>
		<path class="st3" d="M61.5,321.5c0,0,25-35,60,0s60,0,60,0"/>
	</g>
</g>
<g id="Laag_11">
</g>
<g id="Laag_13">
</g>
<g id="Laag_14">
	<circle class="st4" cx="200.5" cy="289.5" r="153"/>
	<circle class="st4" cx="200.5" cy="289.5" r="100.3"/>
	<circle class="st5" cx="200.5" cy="289.5" r="44.3"/>
</g>
</svg>
