<?xml version="1.0" encoding="utf-8"?>
<!-- Generator: Adobe Illustrator 21.1.0, SVG Export Plug-In . SVG Version: 6.00 Build 0)  -->
<svg version="1.1" xmlns="http://www.w3.org/2000/svg" xmlns:xlink="http://www.w3.org/1999/xlink" x="0px" y="0px"
	 viewBox="0 0 400 600" style="enable-background:new 0 0 400 600;" xml:space="preserve">
<style type="text/css">
	.st0{fill:#FF0000;}
	.st1{fill:none;stroke:#FFFFFF;stroke-width:30;stroke-miterlimit:10;}
	.st2{fill:none;stroke:#FFFFFF;stroke-width:30;stroke-linecap:round;stroke-linejoin:round;stroke-miterlimit:10;}
	.st3{fill:#FF0000;stroke:#FFFFFF;stroke-width:30;stroke-linejoin:round;stroke-miterlimit:10;}
	.st4{fill:#FFFFFF;}
</style>
<g id="Laag_8">
	<path class="st0" d="M355.5,465h-311c-11,0-20-9-20-20V134c0-11,9-20,20-20h311c11,0,20,9,20,20v311C375.5,456,366.5,465,355.5,465
		z"/>
	<g>
		<line class="st1" x1="100" y1="246" x2="100" y2="397"/>
		<line class="st1" x1="166.7" y1="246" x2="166.7" y2="397"/>
		<g>
			<line class="st1" x1="233.3" y1="246" x2="233.3" y2="397"/>
			<line class="st1" x1="300" y1="246" x2="300" y2="397"/>
		</g>
	</g>
	<line class="st2" x1="74.5" y1="426" x2="325.5" y2="426"/>
	<polygon class="st3" points="199.5,152 74,214 325,214 	"/>
	<g>
		<path class="st4" d="M114,391H87c-3.3,0-6,2.7-6,6s2.7,6,6,6h27c3.3,0,6-2.7,6-6S117.3,391,114,391L114,391z"/>
	</g>
	<g>
		<path class="st4" d="M180,391h-27c-3.3,0-6,2.7-6,6s2.7,6,6,6h27c3.3,0,6-2.7,6-6S183.3,391,180,391L180,391z"/>
	</g>
	<g>
		<path class="st4" d="M247,391h-27c-3.3,0-6,2.7-6,6s2.7,6,6,6h27c3.3,0,6-2.7,6-6S250.3,391,247,391L247,391z"/>
	</g>
	<g>
		<path class="st4" d="M314,391h-27c-3.3,0-6,2.7-6,6s2.7,6,6,6h27c3.3,0,6-2.7,6-6S317.3,391,314,391L314,391z"/>
	</g>
	<g>
		<path class="st4" d="M114,240H87c-3.3,0-6,2.7-6,6s2.7,6,6,6h27c3.3,0,6-2.7,6-6S117.3,240,114,240L114,240z"/>
	</g>
	<g>
		<path class="st4" d="M180,240h-27c-3.3,0-6,2.7-6,6s2.7,6,6,6h27c3.3,0,6-2.7,6-6S183.3,240,180,240L180,240z"/>
	</g>
	<g>
		<path class="st4" d="M247,240h-27c-3.3,0-6,2.7-6,6s2.7,6,6,6h27c3.3,0,6-2.7,6-6S250.3,240,247,240L247,240z"/>
	</g>
	<g>
		<path class="st4" d="M314,240h-27c-3.3,0-6,2.7-6,6s2.7,6,6,6h27c3.3,0,6-2.7,6-6S317.3,240,314,240L314,240z"/>
	</g>
</g>
<g id="Laag_5">
	<polygon class="st0" points="200,523 265.3,465 134.7,465 	"/>
</g>
</svg>
