<?xml version="1.0" encoding="utf-8"?>
<!-- Generator: Adobe Illustrator 21.1.0, SVG Export Plug-In . SVG Version: 6.00 Build 0)  -->
<svg version="1.1" xmlns="http://www.w3.org/2000/svg" xmlns:xlink="http://www.w3.org/1999/xlink" x="0px" y="0px"
	 viewBox="0 0 400 600" style="enable-background:new 0 0 400 600;" xml:space="preserve">
<style type="text/css">
	.st0{fill:#FDCB2D;}
	.st1{fill:#FFFFFF;}
</style>
<g id="Laag_8">
	<path class="st0" d="M355.5,465h-311c-11,0-20-9-20-20V134c0-11,9-20,20-20h311c11,0,20,9,20,20v311C375.5,456,366.5,465,355.5,465
		z"/>
	<g>
		<g>
			<path class="st1" d="M211.2,189.8"/>
			<path class="st1" d="M258.2,273.8c0-42-6.9-77.1-7.6-84h-5V257H240v-67.2h-5.6V257h-7v-67.2h-5.6V257h-5.6v-67.2h-5
				c-0.7,6.9-7.6,42-7.6,84c0,0,0,14,22.4,19.6c0,0-9,134.8-1.4,145.6c0,0,2.4,5.2,6.3,5.4c4.1-0.2,6.3-5.4,6.3-5.4
				c6.8-10.8-1.4-145.6-1.4-145.6C258.2,287.8,258.2,273.8,258.2,273.8z"/>
			<path class="st1" d="M250.5,189.8"/>
		</g>
		<path class="st1" d="M176.2,134.4v302.5c0,0-1.2,7.1-9.7,7.5c-11.5-0.4-11.8-9.7-11.8-9.7l7.5-149.1c0,0-20.4-5.4-20.4-13.9
			C141.8,263.1,153.6,134.4,176.2,134.4z"/>
	</g>
</g>
<g id="Laag_5">
	<polygon class="st0" points="200,523 265.3,465 134.7,465 	"/>
</g>
</svg>
