<?xml version="1.0" encoding="utf-8"?>
<!-- Generator: Adobe Illustrator 21.1.0, SVG Export Plug-In . SVG Version: 6.00 Build 0)  -->
<svg version="1.1" xmlns="http://www.w3.org/2000/svg" xmlns:xlink="http://www.w3.org/1999/xlink" x="0px" y="0px"
	 viewBox="0 0 400 600" style="enable-background:new 0 0 400 600;" xml:space="preserve">
<style type="text/css">
	.st0{fill:#506D99;}
	.st1{stroke:#000000;stroke-width:24;stroke-linecap:round;stroke-linejoin:round;stroke-miterlimit:10;}
	.st2{fill:#FFFFFF;}
	.st3{display:none;}
	.st4{display:inline;}
	.st5{display:inline;fill:none;stroke:#000000;stroke-width:25;stroke-linecap:round;stroke-linejoin:round;stroke-miterlimit:10;}
</style>
<g id="Laag_2">
	<circle cx="300.4" cy="237.1" r="26.9"/>
</g>
<g id="Laag_8">
	<path class="st0" d="M355,465H44c-11,0-20-9-20-20V134c0-11,9-20,20-20h311c11,0,20,9,20,20v311C375,456,366,465,355,465z"/>
</g>
<g id="Laag_1">
	<path class="st1" d="M24,410"/>
</g>
<g id="Laag_7">
</g>
<g id="Laag_5">
	<g>
		<g>
			<path class="st2" d="M192.7,303.7c-4.5-3.9-5.3-10.5-2.2-15.4l-78.3,78.3c-4.9,4.9-4.9,12.8,0,17.7c2.4,2.4,5.6,3.7,8.8,3.7
				s6.4-1.2,8.8-3.7l72.3-72.3L192.7,303.7z"/>
			<path class="st2" d="M352,282.6h-22.6h-12l-2.3-8.2l-3.2-11.4c-0.6-2.1-1.7-4.1-3.3-5.7l-61.9-61.9c-2.4-2.4-5.7-3.8-9.2-3.8
				h-43.9c-7.2,0-13,5.8-13,13s5.8,13,13,13h22.6H232l12.9,12.9l-46.5,54.3c-4.3,5-3.7,12.5,1.2,16.8l21,18.3
				c0.7,0.6,1.4,1.1,2.2,1.5l22,24.4l-56.4,9.2c-7.1,1.2-11.9,7.8-10.7,14.9c1,6.4,6.6,10.9,12.8,10.9c0.7,0,1.4-0.1,2.1-0.2
				l79.9-13.1c2.3-0.4,4.3-1.3,6-2.7c0,0,0.1,0,0.1-0.1c5.7-3.4,7.5-10.8,4-16.5l-27.4-44.9l32.8-28.6l6.8,24.2
				c1.6,5.6,6.7,9.5,12.5,9.5H352c7.2,0,13-5.8,13-13S359.2,282.6,352,282.6z"/>
			<circle class="st2" cx="310.4" cy="218" r="26.9"/>
		</g>
		<path class="st2" d="M142.6,324.1l52.3-48.8l38.1-41.8l-8.9-8.9h-18.8h-22.6c-7.2,0-13-5.8-13-13c0-3.1-0.1-9.2-0.1-9.2
			s-21.2,3-35.5,7.6c-29,4-44-6-53-16c0,0,2,25,11,31c0,0-29,15-58,0c0,0-2,54,65,53c0,0-12,13-51,6
			C48,283.9,64.6,335.7,142.6,324.1z"/>
	</g>
	<polygon class="st0" points="200,523 265.3,465 134.7,465 	"/>
</g>
<g id="Laag_6" class="st3">
	<path class="st4" d="M236,237c0,0-36-36-101-15c-29,4-44-6-53-16c0,0,2,25,11,31c0,0-29,15-58,0c0,0-2,54,65,53c0,0-12,13-51,6
		c0,0,28,59,119,37S236,237,236,237z"/>
</g>
<g id="Laag_3" class="st3">
	<line class="st5" x1="209" y1="301.5" x2="118" y2="392.5"/>
</g>
</svg>
