<?xml version="1.0" encoding="utf-8"?>
<!-- Generator: Adobe Illustrator 21.1.0, SVG Export Plug-In . SVG Version: 6.00 Build 0)  -->
<svg version="1.1" xmlns="http://www.w3.org/2000/svg" xmlns:xlink="http://www.w3.org/1999/xlink" x="0px" y="0px"
	 viewBox="0 0 400 600" style="enable-background:new 0 0 400 600;" xml:space="preserve">
<style type="text/css">
	.st0{fill:#2B3B51;}
	.st1{fill:#FFFFFF;}
	.st2{fill:none;stroke:#FFFFFF;stroke-width:15;stroke-linecap:round;stroke-linejoin:round;stroke-miterlimit:10;}
	.st3{display:none;}
	.st4{display:inline;}
</style>
<g id="Laag_8">
	<path class="st0" d="M356,465H45c-11,0-20-9-20-20V134c0-11,9-20,20-20h311c11,0,20,9,20,20v311C376,456,367,465,356,465z"/>
</g>
<g id="Laag_5">
	<polygon class="st0" points="200,523 265.3,465 134.7,465 	"/>
</g>
<g id="Laag_9">
</g>
<g id="Laag_16">
</g>
<g id="Laag_17">
</g>
<g id="Laag_7">
</g>
<g id="Laag_12">
	<g>
		<g>
			<g>
				<path class="st1" d="M178.5,301.4c-3.8-3.3-4.5-8.9-1.9-13l-66,66c-4.1,4.1-4.1,10.8,0,14.9c2.1,2.1,4.8,3.1,7.5,3.1
					c2.7,0,5.4-1,7.5-3.1l61-61L178.5,301.4z"/>
				<path class="st1" d="M312.8,283.6h-19.1h-10.1l-2-6.9l-2.7-9.6c-0.5-1.8-1.5-3.5-2.8-4.8l-52.2-52.2c-2.1-2.1-4.8-3.2-7.7-3.2
					h-37c-6.1,0-11,4.9-11,11c0,6.1,4.9,11,11,11h19.1h13.4l10.9,10.9l-39.2,45.8c-3.6,4.2-3.1,10.5,1,14.2l17.7,15.5
					c0.6,0.5,1.2,0.9,1.8,1.3l18.5,20.5l-47.5,7.8c-6,1-10,6.6-9,12.6c0.9,5.4,5.5,9.2,10.8,9.2c0.6,0,1.2,0,1.8-0.1l67.3-11
					c1.9-0.3,3.6-1.1,5.1-2.3c0,0,0.1,0,0.1-0.1c4.8-2.9,6.3-9.1,3.4-13.9l-23.1-37.8l27.6-24.1l5.7,20.4c1.3,4.7,5.6,8,10.6,8h37.5
					c6.1,0,11-4.9,11-11S318.8,283.6,312.8,283.6z"/>
				<circle class="st1" cx="277.7" cy="229.2" r="22.7"/>
			</g>
		</g>
		<g>
			<path class="st1" d="M327.2,358.8l-18.5-47.3h-21.8l21.9,54.5c1.6,3.4,5.3,5.5,9.2,5.5c1.3,0,2.7-0.2,4-0.8
				C327,368.8,329.4,363.4,327.2,358.8z"/>
		</g>
		<g>
			<path class="st1" d="M319,337.5c13.8,0,25,11.4,25,25.5s-11.2,25.5-25,25.5s-25-11.4-25-25.5S305.2,337.5,319,337.5 M319,317.5
				c-24.9,0-45,20.4-45,45.5s20.1,45.5,45,45.5s45-20.4,45-45.5S343.9,317.5,319,317.5L319,317.5z"/>
		</g>
		<path class="st1" d="M306.7,321.5H253l8.9,17.6c0.4,0.8,0.7,1.6,0.9,2.4h43.8c4.6,0,8.3-4.5,8.3-10S311.3,321.5,306.7,321.5z"/>
		<path class="st1" d="M40.1,281c3.3,2.4,8,1.7,10.5-1.7c0.1-0.1,8.5-11.4,21-12.4c8.8-0.7,18.1,3.8,27.6,13.3
			c11.8,11.8,24,17.8,36.4,17.8c1.1,0,2.1,0,3.2-0.1c19.5-1.6,31.4-17.9,31.9-18.6c2.4-3.4,1.6-8-1.7-10.4c-3.3-2.4-8-1.7-10.5,1.7
			c-0.1,0.1-8.5,11.4-21,12.4c-8.8,0.7-18.1-3.8-27.6-13.3C97,256.8,83.7,250.9,70.3,252c-19.5,1.6-31.4,17.9-31.9,18.6
			C36,273.9,36.8,278.6,40.1,281z"/>
		<path class="st1" d="M109.8,307.7C97,294.9,83.7,289,70.3,290.1c-19.5,1.6-31.4,17.9-31.9,18.6c-2.4,3.4-1.6,8,1.7,10.4
			c3.3,2.4,8,1.7,10.5-1.7c0.1-0.1,8.5-11.4,21-12.4c8.8-0.7,18.1,3.8,27.6,13.3c7.5,7.5,15.3,12.7,23.1,15.4L135,321
			C126.9,320.8,118.4,316.3,109.8,307.7z"/>
		<path class="st2" d="M44.5,237c0,0,25-35,60,0s60,0,60,0"/>
	</g>
</g>
<g id="Laag_15" class="st3">
	<g class="st4">
		<path class="st2" d="M61.5,241.5c0,0,25-35,60,0s60,0,60,0"/>
		<path class="st2" d="M61.5,281.5c0,0,25-35,60,0s60,0,60,0"/>
		<path class="st2" d="M61.5,321.5c0,0,25-35,60,0s60,0,60,0"/>
	</g>
</g>
<g id="Laag_11">
</g>
<g id="Laag_13">
</g>
</svg>
